<svg width="132" height="50" viewBox="0 0 132 50" fill="none" xmlns="http://www.w3.org/2000/svg">
<path d="M54.675 10.45H49.325V7.15H63.95V10.45H58.6V25H54.675V10.45ZM71.55 17.15C71.3833 16.25 71.0833 15.5667 70.65 15.1C70.2333 14.6333 69.5917 14.4 68.725 14.4C68.1583 14.4 67.6833 14.5 67.3 14.7C66.9333 14.8833 66.6333 15.1167 66.4 15.4C66.1833 15.6833 66.025 15.9833 65.925 16.3C65.8417 16.6167 65.7917 16.9 65.775 17.15H71.55ZM65.775 19.4C65.825 20.55 66.1167 21.3833 66.65 21.9C67.1833 22.4167 67.95 22.675 68.95 22.675C69.6667 22.675 70.2833 22.5 70.8 22.15C71.3167 21.7833 71.6333 21.4 71.75 21H74.875C74.375 22.55 73.6083 23.6583 72.575 24.325C71.5417 24.9917 70.2917 25.325 68.825 25.325C67.8083 25.325 66.8917 25.1667 66.075 24.85C65.2583 24.5167 64.5667 24.05 64 23.45C63.4333 22.85 62.9917 22.1333 62.675 21.3C62.375 20.4667 62.225 19.55 62.225 18.55C62.225 17.5833 62.3833 16.6833 62.7 15.85C63.0167 15.0167 63.4667 14.3 64.05 13.7C64.6333 13.0833 65.325 12.6 66.125 12.25C66.9417 11.9 67.8417 11.725 68.825 11.725C69.925 11.725 70.8833 11.9417 71.7 12.375C72.5167 12.7917 73.1833 13.3583 73.7 14.075C74.2333 14.7917 74.6167 15.6083 74.85 16.525C75.0833 17.4417 75.1667 18.4 75.1 19.4H65.775ZM86.0055 16.625C85.7721 15.1417 84.8971 14.4 83.3805 14.4C82.8138 14.4 82.3388 14.5333 81.9555 14.8C81.5721 15.05 81.2555 15.3833 81.0055 15.8C80.7721 16.2 80.6055 16.65 80.5055 17.15C80.4055 17.6333 80.3555 18.1167 80.3555 18.6C80.3555 19.0667 80.4055 19.5417 80.5055 20.025C80.6055 20.5083 80.7638 20.95 80.9805 21.35C81.2138 21.7333 81.5221 22.05 81.9055 22.3C82.2888 22.55 82.7555 22.675 83.3055 22.675C84.1555 22.675 84.8055 22.4417 85.2555 21.975C85.7221 21.4917 86.0138 20.85 86.1305 20.05H89.5555C89.3221 21.7667 88.6555 23.075 87.5555 23.975C86.4555 24.875 85.0471 25.325 83.3305 25.325C82.3638 25.325 81.4721 25.1667 80.6555 24.85C79.8555 24.5167 79.1721 24.0583 78.6055 23.475C78.0388 22.8917 77.5971 22.2 77.2805 21.4C76.9638 20.5833 76.8055 19.6917 76.8055 18.725C76.8055 17.725 76.9471 16.8 77.2305 15.95C77.5305 15.0833 77.9638 14.3417 78.5305 13.725C79.0971 13.0917 79.7888 12.6 80.6055 12.25C81.4221 11.9 82.3555 11.725 83.4055 11.725C84.1721 11.725 84.9055 11.825 85.6055 12.025C86.3221 12.225 86.9555 12.5333 87.5055 12.95C88.0721 13.35 88.5305 13.8583 88.8805 14.475C89.2305 15.075 89.4305 15.7917 89.4805 16.625H86.0055ZM91.5609 7.15H95.1109V13.875H95.1859C95.6359 13.125 96.2109 12.5833 96.9109 12.25C97.6109 11.9 98.2943 11.725 98.9609 11.725C99.9109 11.725 100.686 11.8583 101.286 12.125C101.903 12.375 102.386 12.7333 102.736 13.2C103.086 13.65 103.328 14.2083 103.461 14.875C103.611 15.525 103.686 16.25 103.686 17.05V25H100.136V17.7C100.136 16.6333 99.9693 15.8417 99.6359 15.325C99.3026 14.7917 98.7109 14.525 97.8609 14.525C96.8943 14.525 96.1943 14.8167 95.7609 15.4C95.3276 15.9667 95.1109 16.9083 95.1109 18.225V25H91.5609V7.15Z" fill="#333333"/>
<path d="M92.725 47H88.825L85.8 34.85H85.75L82.775 47H78.8L74.075 29.15H78L80.825 41.3H80.875L83.975 29.15H87.65L90.7 41.45H90.75L93.675 29.15H97.525L92.725 47ZM98.9584 29.15H102.508V35.875H102.583C103.033 35.125 103.608 34.5833 104.308 34.25C105.008 33.9 105.692 33.725 106.358 33.725C107.308 33.725 108.083 33.8583 108.683 34.125C109.3 34.375 109.783 34.7333 110.133 35.2C110.483 35.65 110.725 36.2083 110.858 36.875C111.008 37.525 111.083 38.25 111.083 39.05V47H107.533V39.7C107.533 38.6333 107.367 37.8417 107.033 37.325C106.7 36.7917 106.108 36.525 105.258 36.525C104.292 36.525 103.592 36.8167 103.158 37.4C102.725 37.9667 102.508 38.9083 102.508 40.225V47H98.9584V29.15ZM117.428 32.075H113.878V29.15H117.428V32.075ZM113.878 34.075H117.428V47H113.878V34.075ZM119.423 44.325L126.148 36.75H119.923V34.075H130.823V36.75L124.098 44.325H131.298V47H119.423V44.325Z" fill="#616161"/>
<path d="M36 5H0V13.7245H36V5Z" fill="#A9A9A9"/>
<path d="M24 17.8572H12V48.1633H24V17.8572Z" fill="#A9A9A9"/>
<path d="M39 6.83679H3V15.5613H39V6.83679Z" fill="#DCDCDC"/>
<path d="M27 19.6938H15V50H27V19.6938Z" fill="#D9D9D9"/>
</svg>
