<svg width="114" height="117" viewBox="0 0 114 117" fill="none" xmlns="http://www.w3.org/2000/svg">
<mask id="mask0_4669_1997" style="mask-type:luminance" maskUnits="userSpaceOnUse" x="0" y="0" width="114" height="117">
<path d="M113.75 0H0V117H113.75V0Z" fill="white"/>
</mask>
<g mask="url(#mask0_4669_1997)">
<path d="M56.875 117C88.286 117 113.75 90.8088 113.75 58.5C113.75 26.1913 88.286 0 56.875 0C25.4638 0 0 26.1913 0 58.5C0 90.8088 25.4638 117 56.875 117Z" fill="url(#paint0_linear_4669_1997)"/>
<path d="M39.8617 81.2499V33.9771H58.5122C62.0979 33.9771 65.1522 34.6618 67.6759 36.0314C70.1998 37.3857 72.1231 39.2707 73.4468 41.6867C74.7849 44.0872 75.4548 46.8572 75.4548 49.9964C75.4548 53.1355 74.7776 55.9054 73.4234 58.3059C72.0692 60.7067 70.1072 62.5764 67.5374 63.9151C64.9829 65.2537 61.8899 65.9233 58.2583 65.9233H46.3708V57.9137H56.6428C58.5661 57.9137 60.1511 57.5828 61.3975 56.9211C62.6595 56.2442 63.5981 55.313 64.2136 54.1281C64.8445 52.9278 65.16 51.5505 65.16 49.9964C65.16 48.4269 64.8445 47.0573 64.2136 45.8877C63.5981 44.7027 62.6595 43.7872 61.3975 43.1407C60.1359 42.4791 58.5353 42.1485 56.5966 42.1485H49.8564V81.2499H39.8617Z" fill="white"/>
</g>
<defs>
<linearGradient id="paint0_linear_4669_1997" x1="0" y1="0" x2="116.953" y2="113.705" gradientUnits="userSpaceOnUse">
<stop stop-color="#F8A4D8"/>
<stop offset="1" stop-color="#6C63FF"/>
</linearGradient>
</defs>
</svg>
