<svg width="77" height="77" viewBox="0 0 77 77" fill="none" xmlns="http://www.w3.org/2000/svg">
<g opacity="0.7">
<path d="M35.6416 0.0716972C35.2865 0.139931 35.1636 0.194517 35.3685 0.208164C36.0649 0.249104 36.7887 0.535683 37.1847 0.917789C37.5534 1.29989 37.5807 1.38177 37.5261 2.17328C37.4578 3.18313 37.0345 4.09745 35.983 5.47577C30.6709 12.4765 15.3901 21.3332 8.46659 21.4287C7.08736 21.4423 6.50016 21.3059 6.02221 20.8146C5.48963 20.2824 5.36673 19.6546 5.6535 18.8358C5.7764 18.481 5.84468 18.1671 5.83102 18.1398C5.74909 18.0716 4.15136 20.951 3.57782 22.2202C2.60826 24.3354 2.53998 25.5227 3.37298 26.3278C4.56104 27.4605 7.59262 27.3923 11.8669 26.1368C16.0319 24.9086 23.0646 21.5379 27.7212 18.5356C37.4988 12.2308 43.9989 5.544 43.6712 2.13234C43.5892 1.24531 43.2888 0.849556 42.4285 0.399218C41.7321 0.044405 41.6501 0.0307579 38.9872 0.00346565C37.4851 -0.0101814 35.983 0.0171108 35.6416 0.0716972Z" fill="black"/>
<path d="M30.9986 0.726749C29.3599 0.986034 27.4618 1.51825 24.8808 2.43258C23.2148 3.03303 22.8871 3.29232 24.4029 2.81468C24.9081 2.65092 25.8231 2.48717 26.4239 2.44622C27.3798 2.37799 27.5574 2.40528 27.8578 2.65092C28.5952 3.25138 28.0763 4.50687 26.3556 6.22634C25.1403 7.45454 24.676 7.85029 23.4197 8.75097C21.6717 10.0065 20.1969 10.8935 18.3807 11.7669C15.9226 12.9541 14.68 13.3499 13.2051 13.4318C12.099 13.4863 11.9761 13.4727 11.662 13.1861C11.4845 13.0087 11.3343 12.7358 11.3343 12.572C11.3343 12.0398 12.0171 10.9208 13.0003 9.82905C13.9152 8.84649 13.9425 8.80555 13.3144 9.31048C12.3175 10.1429 9.4498 13.1179 8.69873 14.1004C7.25122 15.9973 6.96445 17.594 7.96132 18.2354C8.48024 18.5629 10.6652 18.5765 12.0854 18.249C17.7115 16.9253 26.4649 11.8078 31.2308 7.05879C33.2382 5.05273 34.1258 3.68807 34.235 2.39164C34.3033 1.68201 34.276 1.57284 33.9619 1.27261C33.3611 0.726749 32.2549 0.522049 30.9986 0.726749Z" fill="black"/>
<path d="M45.8151 0.890491C47.4811 1.91399 47.3036 3.8791 45.2689 6.90866C42.6607 10.7843 37.0208 15.7517 30.3158 20.0913C26.6971 22.4249 25.0993 23.3392 21.1665 25.3043C14.0245 28.8934 7.89305 30.6947 4.53373 30.2308C2.79945 29.9851 2.04838 29.4529 1.7343 28.2111L1.54312 27.4741L1.32462 28.4158C0.300441 32.81 0.177539 33.9563 0.72377 34.7614C1.10613 35.3346 1.95279 35.9214 2.6902 36.0988C3.5232 36.3172 6.47285 36.2762 7.81112 36.0442C14.0108 34.9661 23.0783 31.0359 31.4902 25.7683C33.4703 24.5401 34.235 24.0352 36.0649 22.807C36.8296 22.2884 41.2678 18.945 41.9915 18.3445C45.5011 15.4105 48.9696 11.917 50.3625 9.93821C52.0968 7.48182 52.7113 6.06257 52.7113 4.57508C52.7113 3.00572 52.0422 2.2961 49.9938 1.69564C48.2595 1.19072 45.9927 0.631207 45.7059 0.631207C45.4328 0.631207 45.4464 0.658501 45.8151 0.890491Z" fill="black"/>
<path d="M55.2649 4.19299C56.3574 5.85788 55.4151 8.75096 52.6157 12.2991C51.3867 13.8684 48.0547 17.2801 46.2931 18.7949C45.7332 19.2725 45.2416 19.6956 45.2006 19.7365C44.7909 20.1595 40.981 23.1072 39.1921 24.3764C33.5113 28.4294 26.342 32.578 20.8251 35.0071C19.9238 35.4028 18.9132 35.8532 18.5719 36.0033C17.616 36.44 14.2703 37.6682 12.9047 38.0912C9.1084 39.2648 5.77639 39.7834 3.70072 39.5378C1.78891 39.3058 0.778379 38.7599 0.273116 37.7091L0 37.136L0.0682789 39.8653C0.0955904 41.3664 0.204837 42.8402 0.286771 43.1405C0.61451 44.3004 1.52945 45.051 3.14083 45.4604C4.28791 45.7606 7.49702 45.6651 9.46345 45.2693C16.5098 43.8501 25.8094 39.8243 35.3002 34.0928C37.8538 32.537 43.7258 28.6205 44.1082 28.1974C44.1491 28.1565 44.3949 27.9791 44.6544 27.788C44.9138 27.6106 45.2006 27.4059 45.2689 27.3513C49.6797 23.9124 51.4823 22.3567 54.1452 19.6819C58.0644 15.7653 60.2903 12.4901 60.8638 9.84269C61.055 8.9966 61.055 8.71002 60.9184 8.08228C60.6863 7.04513 60.0718 6.41739 58.1736 5.32566C56.6305 4.43863 55.1147 3.63347 54.9645 3.63347C54.9235 3.63347 55.0601 3.89276 55.2649 4.19299Z" fill="black"/>
<path d="M63.117 9.21494C63.7315 10.4431 63.554 11.9579 62.5571 14.0868C60.0445 19.4226 51.3048 27.5697 40.4894 34.6386C38.0177 36.2489 37.2393 36.7402 35.3002 37.8729C34.2487 38.487 33.2928 39.0465 33.1835 39.1147C30.2202 40.8888 24.1025 43.891 20.9616 45.1465C12.9047 48.3398 6.88252 49.5134 3.31837 48.5855C2.41708 48.3535 1.9801 48.0942 1.3929 47.4528L0.942261 46.9615L1.0242 47.3709C1.22903 48.3262 1.96644 50.8235 2.34881 51.847C2.63558 52.5703 2.936 53.1025 3.2774 53.4437C5.6535 55.8182 13.014 54.9857 22.3272 51.3012C33.0743 47.0434 44.8729 40.0836 54.2817 32.4415C56.453 30.6811 56.5486 30.5992 58.8701 28.4294C62.284 25.2634 64.7557 22.3839 66.3534 19.7365C67.3776 18.0443 67.8829 16.6251 67.9785 15.274C68.0604 13.8139 67.8009 13.268 66.2442 11.6986C65.0834 10.5114 63.0487 8.68272 62.9258 8.68272C62.8849 8.68272 62.9668 8.92836 63.117 9.21494Z" fill="black"/>
<path d="M69.8356 16.3521C70.0541 17.1709 70.0678 17.7305 69.863 18.7267C68.7841 23.9533 61.2735 31.9502 49.707 40.1519C38.482 48.1079 26.0416 54.3171 16.4962 56.7325C10.515 58.2337 6.58209 58.1654 4.65662 56.5278C4.38351 56.2958 4.43813 56.4323 4.91608 57.333C5.62618 58.6294 6.93714 60.6628 7.59262 61.4406C8.56218 62.6279 10.0916 63.1328 12.7272 63.1328C16.7147 63.1328 21.699 61.8364 28.7454 58.9706C33.2382 57.1419 39.6154 53.9077 44.3403 51.0692C47.686 49.0631 49.1608 48.1079 51.9602 46.17C62.0519 39.1966 69.6172 31.923 72.28 26.6281C73.154 24.8949 73.3725 24.0352 73.3042 22.6842C73.2496 21.6334 73.2086 21.4969 72.4439 20.1459C71.5426 18.5356 69.9585 16.0519 69.8356 16.0519C69.781 16.0519 69.781 16.1884 69.8356 16.3521Z" fill="black"/>
<path d="M74.6971 26.0549C74.6971 31.4726 64.1958 42.1716 49.7753 51.424C48.0274 52.543 46.1429 53.7166 46.0882 53.7166C46.0609 53.7166 45.583 53.9759 45.0368 54.3034C44.0535 54.8902 42.1827 55.9547 40.9673 56.6234C37.9904 58.261 32.9104 60.6491 29.7833 61.9046C23.3377 64.4702 18.763 65.6165 14.8165 65.6438C12.8091 65.6574 11.7576 65.4937 10.9519 65.0297C10.7198 64.8932 10.515 64.825 10.515 64.8796C10.515 65.0024 13.4919 67.7999 14.3249 68.4686C15.6359 69.5058 16.5918 69.7514 19.0498 69.7378C21.6581 69.7105 24.3619 69.1919 28.0626 68.0319C34.4672 66.0122 42.8518 62.0411 50.1031 57.5786C52.4382 56.1321 54.9235 54.5354 55.0328 54.4126C55.0737 54.3717 55.5654 54.0305 56.1252 53.6484C56.6851 53.2799 57.3679 52.8159 57.6274 52.6249C57.8868 52.4202 58.7198 51.8061 59.4709 51.2602C65.9847 46.443 71.5426 41.1071 74.1782 37.136C76.3085 33.929 76.7455 32.0867 76.0081 29.4256C75.5301 27.7061 74.82 25.4681 74.7517 25.4681C74.7244 25.4681 74.6971 25.7274 74.6971 26.0549Z" fill="black"/>
<path d="M76.7182 36.0033C76.4723 36.9858 75.8442 38.4187 75.2706 39.3058C73.154 42.581 69.2348 46.7295 64.783 50.3868C61.847 52.7886 59.7031 54.3853 56.2618 56.7462C54.6641 57.8379 50.185 60.6764 50.0621 60.6764C50.0348 60.6764 49.6114 60.9084 49.1471 61.195C48.6692 61.4952 47.9318 61.9046 47.5221 62.1366C47.1124 62.3686 46.1019 62.9144 45.2689 63.3648C38.1679 67.2541 30.4933 70.2154 24.717 71.2798C23.1602 71.5664 19.4185 71.6073 18.7903 71.3481C18.0529 71.0342 18.2851 71.2935 19.2137 71.812C21.3303 73.0266 23.3104 73.9273 24.3073 74.132C28.8956 75.1009 38.8234 71.8803 49.5705 65.9167C62.0245 59.0252 72.676 50.1139 76.008 43.8228C76.964 42.0214 77.0322 41.6393 76.9913 38.1458L76.9503 35.089L76.7182 36.0033Z" fill="black"/>
<path d="M75.694 46.7978C75.2297 47.6848 73.4544 50.264 73.072 50.5779C73.0311 50.6188 72.5531 51.1374 72.0342 51.7242C69.9995 54.0305 64.6601 58.6158 61.3827 60.8947C61.1642 61.0449 60.4541 61.5361 59.8123 61.9865C58.2692 63.0646 56.2345 64.3746 54.4865 65.4118C53.6945 65.8758 52.9844 66.3125 52.9025 66.367C52.7386 66.5035 52.5201 66.6263 51.2774 67.295C50.7585 67.5816 50.2669 67.8545 50.185 67.9091C49.9255 68.1138 44.5588 70.7613 43.2751 71.3208C40.0251 72.7673 36.8979 73.8727 34.276 74.5277C31.7906 75.1418 30.6436 75.3192 28.9912 75.3329C28.2128 75.3329 27.6393 75.3738 27.6939 75.4148C27.8441 75.5376 31.2034 76.3291 32.4051 76.5201C38.8916 77.5436 53.1756 71.1707 65.138 61.891C66.5719 60.7856 68.7978 58.8068 70.1907 57.4012C72.9628 54.6309 74.3967 52.6385 75.1614 50.5097C75.612 49.2542 76.4723 45.6651 76.3221 45.6651C76.2948 45.6651 76.008 46.17 75.694 46.7978Z" fill="black"/>
<path d="M72.239 56.5688C70.8325 58.5066 66.9543 62.1775 63.8407 64.5247C60.9594 66.6946 57.1494 69.1646 54.1861 70.7886C48.8194 73.7226 43.6848 75.8242 40.2162 76.5065C37.7992 76.9841 37.7172 77.0524 39.67 76.9705C44.0126 76.7931 46.4706 76.2336 50.5264 74.5004C57.682 71.4163 65.3975 66.1351 69.2075 61.6999C70.3545 60.3625 73.154 55.9274 73.0311 55.6271C73.0038 55.5862 72.6487 56.0093 72.239 56.5688Z" fill="black"/>
<path d="M63.7042 67.3769C60.5361 69.9697 55.9614 72.74 52.206 74.3367C51.4413 74.6642 50.8268 74.9508 50.8541 74.9644C50.9634 75.0872 53.4351 74.0637 55.538 73.0266C58.7608 71.4436 60.8911 70.0653 63.4311 67.8954C64.5509 66.9402 65.4112 66.1214 65.261 66.1487C65.2337 66.1487 64.5372 66.7082 63.7042 67.3769Z" fill="black"/>
</g>
</svg>
